{"title":"Rakta Charitra (2010) 1CD - DVDSCR - Xvid - Team SRG","uid":5919032,"size":733406249,"categoryP":"video","categoryS":"movies","magnet":"?xt=urn:btih:347f427cfd989885d79033f64108b91f9f0f4c98&amp;dn=Rakta+Charitra+%282010%29+1CD+-+DVDSCR+-+Xvid+-+Team+SRG&amp;tr=udp%3A%2F%2Ftracker.openbittorrent.com%3A80&amp;tr=udp%3A%2F%2Fopen.demonii.com%3A1337&amp;tr=udp%3A%2F%2Ftracker.coppersurfer.tk%3A6969&amp;tr=udp%3A%2F%2Fexodus.desync.com%3A6969","seeders":0,"leechers":1,"uploader":"the.count","files":-1,"time":1288338305,"description":"___________________________________________________________________________________\n\n-------------\n|Description|\n-------------\nGeneral\n\nComplete name : Rakta Charitra (2010) 1CD - DVDSCR - Xvid - Team SRG.avi\nFormat : AVI\nFormat/Info : Audio Video Interleave\nFile size : 699 MiB\nDuration : 2h 2mn\nOverall bit rate : 801 Kbps\nWriting library : VirtualDub build 32661/release\n\nVideo\nID : 0\nFormat : MPEG-4 Visual\nFormat profile : Advanced Simple@L5\nFormat settings, BVOP : Yes\nFormat settings, QPel : No\nFormat settings, GMC : No warppoints\nFormat settings, Matrix : Default (H.263)\nCodec ID : XVID\nCodec ID/Hint : XviD\nDuration : 2h 2mn\nBit rate : 664 Kbps\nWidth : 608 pixels\nHeight : 272 pixels\nDisplay aspect ratio : 2.25:1\nFrame rate : 23.976 fps\nColor space : YUV\nChroma subsampling : 4:2:0\nBit depth : 8 bits\nScan type : Progressive\nBits/(Pixel*Frame) : 0.167\nStream size : 579 MiB (83%)\nWriting library : XviD 1.2.1 (UTC 2008-12-04)\n\nAudio\nID : 1\nFormat : MPEG Audio\nFormat version : Version 1\nFormat profile : Layer 3\nMode : Joint stereo\nMode extension : MS Stereo\nCodec ID : 55\nCodec ID/Hint : MP3\nDuration : 2h 2mn\nBit rate mode : Constant\nBit rate : 128 Kbps\nChannel(s) : 2 channels\nSampling rate : 48.0 KHz\nStream size : 112 MiB (16%)\nAlignment : Split accross interleaves\nInterleave, duration : 42 ms (1.00 video frame)\nInterleave, preload duration : 500 ms\nWriting library : LAME3.98r\n___________________________________________________________________________________\n","torrent":{"xt":"urn:btih:347f427cfd989885d79033f64108b91f9f0f4c98","amp;dn":"Rakta+Charitra+%282010%29+1CD+-+DVDSCR+-+Xvid+-+Team+SRG","amp;tr":["udp%3A%2F%2Ftracker.openbittorrent.com%3A80","udp%3A%2F%2Fopen.demonii.com%3A1337","udp%3A%2F%2Ftracker.coppersurfer.tk%3A6969","udp%3A%2F%2Fexodus.desync.com%3A6969"],"infoHash":"347f427cfd989885d79033f64108b91f9f0f4c98","infoHashBuffer":{"type":"Buffer","data":[52,127,66,124,253,152,152,133,215,144,51,246,65,8,185,31,159,15,76,152]},"announce":[],"urlList":[]}}